<?xml version="1.0" encoding="utf-8"?>
<svg width="160pt" height="90pt" viewBox="0 0 160 90" xmlns="http://www.w3.org/2000/svg">
  <rect width="160" height="90" style="fill: rgb(255, 255, 255);"/>
  <circle fill="#ffffff" cx="49.75" cy="49.5" r="48.5"/>
  <g transform="matrix(1, 0, 0, 1, -1.66101, 0.431497)">
    <path fill="#5881d8" d="M 71.726 6.522 C 82.618 3.793 94.677 6.013 103.787 12.613 C 115.065 20.46 121.594 34.607 120.111 48.281 C 119.435 53.819 115.696 58.997 110.404 60.954 C 106.753 62.473 102.742 62.306 98.872 62.324 C 108.122 53.433 108.684 37.337 99.943 27.92 C 93.053 19.775 80.898 17.318 71.156 21.39 C 64.679 17.563 56.394 17.458 49.759 20.977 C 55.358 14.044 62.967 8.576 71.726 6.522 Z"/>
    <path fill="#90b4fe" d="M 74.912 24.751 C 79.792 23.444 85.11 23.549 89.709 25.761 C 97.538 29.315 102.716 38.048 101.663 46.649 C 101.171 52.529 97.722 57.698 93.237 61.349 C 89.516 59.612 87.726 55.741 86.085 52.231 C 81.784 43.296 81.319 32.677 74.912 24.751 Z"/>
    <path fill="#63b132" d="M 48.03 30.289 C 52.251 26.068 58.588 24.672 64.363 25.69 C 59.369 30.456 56.051 37.074 56.069 44.06 C 55.762 52.819 60.562 61.411 68.022 65.94 C 75.219 70.451 84.584 70.644 92.228 67.142 C 98.995 69.143 106.148 68.959 112.985 67.388 C 107.49 74.786 99.495 80.359 90.499 82.545 C 79.379 85.344 67.075 82.896 57.912 75.989 C 47.907 68.722 41.728 56.452 42.009 44.068 C 41.754 38.855 44.449 33.905 48.03 30.289 Z"/>
    <path fill="#91dc47" d="M 60.878 48.457 C 59.149 40.61 62.862 32.299 69.225 27.604 C 74.087 30.649 76.053 36.292 78.089 41.356 C 74.973 47.93 70.971 54.126 68.777 61.112 C 64.88 57.883 61.774 53.521 60.878 48.457 Z"/>
    <path fill="#91dc47" d="M 74.069 64.079 C 73.622 57.47 77.001 51.546 79.458 45.648 C 81.468 52.081 82.732 59.155 87.419 64.307 C 83.022 65.457 78.423 65.36 74.069 64.079 Z"/>
  </g>
</svg>