<?xml version="1.0" encoding="utf-8"?>
<svg viewBox="-434.8293762207031 -131.00625610351562 1600 900" width="1600" height="900" xmlns="http://www.w3.org/2000/svg">
  <rect width="1600" height="900" fill="#f7df1e" y="-131.006" x="-434.829" transform="matrix(1, 0, 0, 1, 0, 0)"/>
  <path d="M 869.742 572.122 C 887.871 601.723 911.457 623.48 953.17 623.48 C 988.214 623.48 1010.599 605.965 1010.599 581.765 C 1010.599 552.765 987.599 542.493 949.028 525.622 L 927.885 516.551 C 866.856 490.551 826.313 457.98 826.313 389.122 C 826.313 325.694 874.642 277.408 950.171 277.408 C 1003.942 277.408 1042.599 296.122 1070.456 345.123 L 1004.599 387.408 C 990.099 361.408 974.456 351.165 950.171 351.165 C 925.399 351.165 909.699 366.88 909.699 387.408 C 909.699 412.779 925.414 423.051 961.7 438.766 L 982.842 447.823 C 1054.699 478.637 1095.271 510.051 1095.271 580.679 C 1095.271 656.823 1035.456 698.536 955.128 698.536 C 876.585 698.536 825.842 661.108 801.014 612.05 Z M 570.986 579.451 C 584.271 603.022 596.357 622.951 625.414 622.951 C 653.199 622.951 670.728 612.079 670.728 569.808 L 670.728 282.237 L 755.3 282.237 L 755.3 570.951 C 755.3 658.522 703.956 698.379 629.013 698.379 C 561.3 698.379 522.085 663.336 502.142 621.13 Z" transform="matrix(1, 0, 0, 1, 0, 0)"/>
</svg>