<?xml version="1.0" encoding="utf-8"?>
<svg viewBox="-100 -217 1120 630" width="1120" height="630" xmlns="http://www.w3.org/2000/svg" xmlns:bx="https://boxy-svg.com">
  <rect width="1120" height="630" style="fill: rgb(232, 232, 232);" x="-100" y="-217" bx:origin="0 0"/>
  <path d="M 274 136 L 307 136 C 308 144 314 152 327 152 C 340 152 346 147 346 141 C 346 120 279 139 279 91 C 279 70 298 52 328 52 C 364 52 376 75 377 92 L 346 92 C 345 85 339 78 327 78 C 317 78 311 83 311 90 C 311 110 378 90 378 139 C 378 161 359 178 326 178 C 288 178 276 159 274 136 Z M 421 54 L 421 26 L 388 26 L 388 175 L 421 175 L 421 81 L 445 81 L 445 54 Z"/>
  <path d="M 472 124 C 474 141 484 150 501 150 C 511 150 520 145 524 137 L 557 137 C 550 161 528 178 500 178 C 464 178 439 152 439 115 C 439 79 464 52 500 52 C 536 52 560 79 560 115 L 559 124 L 472 124 Z M 472 101 L 527 101 C 524 87 515 78 499 78 C 484 78 475 87 472 101 Z M 602 69 C 608 59 620 52 638 52 C 667 52 683 71 683 100 L 683 175 L 650 175 L 650 103 C 650 89 644 80 629 80 C 613 80 605 90 605 106 L 605 175 L 572 175 L 572 54 L 602 54 L 602 69 Z M 755 52 C 793 52 811 78 813 99 L 779 99 C 777 88 767 81 755 81 C 738 81 727 95 727 115 C 727 135 738 149 755 149 C 767 149 777 141 779 131 L 813 131 C 811 151 793 178 755 178 C 720 178 695 151 695 115 C 695 79 720 52 755 52 Z M 822 25 C 822 14 830 6 842 6 C 853 6 861 14 861 25 C 861 36 853 45 841 45 C 830 45 822 37 822 25 Z M 825 54 L 858 54 L 858 175 L 825 175 L 825 54 Z M 876 175 L 876 13 L 908 13 L 908 175 L 876 175 Z"/>
  <g transform="matrix(1, 0, 0, 1, -4, 2)">
    <path d="M145 2H78C37 2 4 36 4 76v68c0 40 33 74 74 74h67c41 0 74-34 74-74V76c0-40-33-74-74-74zm17 143c0 11-17 20-28 20H89c-12 0-28-9-28-20v-2h101v2zm0-24H89c-12 0-28-9-28-21v-1h73c11 0 28 9 28 21v1zm0-44H61v-2c0-11 16-20 28-20h45c11 0 28 9 28 21v1z"/>
  </g>
</svg>