<?xml version="1.0" encoding="utf-8"?>
<svg viewBox="-434.8293762207031 -131.00625610351562 1600 900" width="1600" height="900" xmlns="http://www.w3.org/2000/svg">
  <polygon points="-434.829 318.554 -434.829 768.994 365.171 768.994 1165.171 768.994 1165.171 318.994 1165.171 -131.006 365.171 -131.006 -434.829 -131.006" fill="#007ACC" style=""/>
  <path d="M 780.766 654.514 L 781.051 617.657 L 722.48 617.657 L 663.908 617.657 L 663.908 451.228 L 663.908 284.8 L 622.48 284.8 L 581.051 284.8 L 581.051 451.228 L 581.051 617.657 L 522.48 617.657 L 463.908 617.657 L 463.908 653.8 C 463.908 673.8 464.337 690.514 464.908 690.943 C 465.337 691.514 536.623 691.8 623.051 691.657 L 780.337 691.228 L 780.766 654.514 Z" fill="#FFFFFF" transform="matrix(-1, 0, 0, -1, 1244.958984, 976.493408)"/>
  <path d="M 991.381 284.219 C 1014.239 289.933 1031.667 300.076 1047.667 316.647 C 1055.953 325.504 1068.239 341.647 1069.239 345.504 C 1069.524 346.647 1030.381 372.933 1006.667 387.647 C 1005.81 388.219 1002.381 384.504 998.524 378.79 C 986.953 361.933 974.81 354.647 956.239 353.361 C 928.953 351.504 911.381 365.79 911.524 389.647 C 911.524 396.647 912.524 400.79 915.381 406.504 C 921.381 418.933 932.524 426.361 967.524 441.504 C 1031.953 469.219 1059.524 487.504 1076.667 513.504 C 1095.81 542.504 1100.096 588.79 1087.096 623.219 C 1072.81 660.647 1037.381 686.076 987.524 694.504 C 972.096 697.219 935.524 696.79 918.953 693.79 C 882.81 687.362 848.524 669.504 827.381 646.076 C 819.096 636.933 802.953 613.076 803.953 611.362 C 804.381 610.79 808.096 608.504 812.238 606.076 C 816.238 603.79 831.381 595.076 845.667 586.79 L 871.524 571.79 L 876.953 579.79 C 884.524 591.361 901.096 607.219 911.096 612.504 C 939.81 627.647 979.239 625.504 998.667 608.076 C 1006.953 600.504 1010.381 592.647 1010.381 581.076 C 1010.381 570.647 1009.096 566.076 1003.667 558.219 C 996.667 548.219 982.381 539.79 941.81 522.219 C 895.381 502.219 875.381 489.79 857.096 470.076 C 846.524 458.647 836.524 440.361 832.381 425.076 C 828.953 412.361 828.096 380.504 830.81 367.647 C 840.381 322.79 874.238 291.504 923.096 282.219 C 938.953 279.219 975.81 280.361 991.381 284.219 Z" fill="#FFFFFF"/>
</svg>